# Blender v2.78 (sub 0) OBJ File: 'Blatt.blend'
# www.blender.org
mtllib Blatt.mtl
o Grid
v -0.855388 0.278644 0.000000
v -0.554134 0.167706 0.408389
v -0.008131 0.114131 0.561742
v 0.519939 0.164555 0.438518
v 0.814248 0.240228 0.086707
v 1.214987 0.401930 0.000000
v -0.222261 0.058217 0.000000
v 0.260183 0.055186 0.000000
v 0.648146 0.137474 0.000000
v 0.880749 0.261384 0.000000
v 1.214987 0.433838 0.057346
v -0.554134 0.167706 -0.408389
v -0.008131 0.114131 -0.561742
v 0.519939 0.164555 -0.438518
v 0.814248 0.240228 -0.086707
v 1.214987 0.433838 -0.057346
vt 0.0170 0.8256
vt 0.0001 0.4831
vt 0.3457 0.5377
vt 0.2072 0.1698
vt 0.5787 0.3338
vt 0.5236 0.0001
vt 0.7692 0.1669
vt 0.8258 0.0403
vt 0.8982 0.0539
vt 0.3543 0.8876
vt 0.6922 0.7236
vt 0.9022 0.4324
vt 0.9022 0.1275
vt 0.0001 0.9999
vt 0.0460 0.9438
vt 0.2821 0.9438
vt 0.2902 0.9858
vt 0.0001 0.8878
vt 0.2902 0.9019
vn 0.3288 0.9443 0.0140
vn 0.0733 0.9893 -0.1264
vn -0.1613 0.9758 -0.1478
vn -0.4495 0.8756 -0.1765
vn 0.3288 0.9443 -0.0140
vn 0.0733 0.9893 0.1264
vn -0.1613 0.9758 0.1478
vn -0.4495 0.8756 0.1765
vn -0.4087 0.8766 0.2541
vn -0.4087 0.8766 -0.2541
usemtl Material.001
s off
f 1/1/1 2/2/1 7/3/1
f 2/2/2 3/4/2 8/5/2 7/3/2
f 3/4/3 4/6/3 9/7/3 8/5/3
f 4/6/4 5/8/4 10/9/4 9/7/4
f 1/1/5 7/3/5 12/10/5
f 7/3/6 8/5/6 13/11/6 12/10/6
f 8/5/7 9/7/7 14/12/7 13/11/7
f 9/7/8 10/9/8 15/13/8 14/12/8
f 15/14/9 10/15/9 6/16/9 16/17/9
f 10/15/10 5/18/10 11/19/10 6/16/10
