# Blender v2.78 (sub 0) OBJ File: 'Fels_doppel.blend'
# www.blender.org
mtllib Doppelstein2.mtl
o Cube.001_Cube.000
v -1.000000 -0.400000 1.000000
v -1.000000 0.400000 1.000000
v -1.000000 -0.400000 -1.000000
v -1.000000 0.400000 -1.000000
v 1.000000 -0.400000 1.000000
v 1.000000 0.400000 1.000000
v 1.000000 -0.400000 -1.000000
v 1.000000 0.400000 -1.000000
v -0.600000 0.400000 -1.000000
v -0.200000 0.400000 -1.000000
v 0.200000 0.400000 -1.000000
v 0.600000 0.400000 -1.000000
v 0.600000 -0.400000 -1.000000
v 0.200000 -0.400000 -1.000000
v -0.200000 -0.400000 -1.000000
v -0.600000 -0.400000 -1.000000
v 0.600000 0.400000 1.000000
v 0.200000 0.400000 1.000000
v -0.200000 0.400000 1.000000
v -0.600000 0.400000 1.000000
v -0.600000 -0.400000 1.000000
v -0.200000 -0.400000 1.000000
v 0.200000 -0.400000 1.000000
v 0.600000 -0.400000 1.000000
v -1.000000 0.400000 0.600000
v -1.000000 0.400000 0.200000
v -1.000000 0.400000 -0.200000
v -1.000000 0.400000 -0.600000
v -1.000000 -0.400000 -0.600000
v -1.000000 -0.400000 -0.200000
v -1.000000 -0.400000 0.200000
v -1.000000 -0.400000 0.600000
v 1.000000 0.400000 -0.600000
v 1.000000 0.400000 -0.200000
v 1.000000 0.400000 0.200000
v 1.000000 0.400000 0.600000
v 1.000000 -0.400000 0.600000
v 1.000000 -0.400000 0.200000
v 1.000000 -0.400000 -0.200000
v 1.000000 -0.400000 -0.600000
v 0.600000 0.400000 -0.600000
v 0.600000 0.400000 0.200000
v 0.600000 0.400000 0.600000
v -0.600000 0.400000 -0.600000
v -0.600000 0.400000 0.600000
v 0.200000 0.400000 0.826912
v -0.200000 0.400000 0.822907
v 0.838371 0.400000 -0.200000
v 0.200000 0.400000 -0.783474
v -0.999953 0.820638 -0.878316
v -0.604857 0.822878 -0.893691
v -0.137999 0.974036 -0.898632
v -1.005491 1.044956 0.831537
v -0.600000 1.044956 0.831537
v -1.004487 2.039695 0.352684
v -0.600000 2.032940 0.354830
v -0.999356 1.994739 -0.610395
v -0.058426 1.811165 0.326388
v -0.311569 1.962628 -0.285447
v 0.261596 0.971647 -0.958847
v 0.200000 1.053111 0.984090
v -0.201773 1.054344 0.979454
v 0.853710 1.050704 0.672329
v 0.752135 1.189282 0.192141
v 0.720592 0.980434 -0.733460
v 0.990219 0.990577 -0.197852
v 0.022298 1.626457 -0.706722
v 0.481294 1.635244 -0.481335
v -0.200000 0.400000 -0.932226
v 0.039765 0.400000 -0.709977
v -0.021980 0.586297 -0.738394
v -0.385746 0.594014 -0.734744
v -0.168447 0.660703 -0.751978
v -0.445193 0.400000 -0.600000
v -0.413045 0.400000 -0.854043
v -0.024207 0.400000 -0.901300
v -0.380797 0.505591 -0.817336
v -0.206928 0.547463 -0.868853
v -0.050768 0.505591 -0.876903
v 0.024408 0.463992 -0.787684
v -0.430677 0.465864 -0.726330
v 0.769388 0.399999 0.507538
v 0.696758 0.400000 0.410865
v 0.760393 0.400000 0.303276
v 0.883510 0.400000 0.292854
v 0.897881 0.400000 0.420480
v 0.838810 0.462610 0.397544
vt 0.4717 0.0738
vt 0.5239 0.1399
vt 0.3174 0.2599
vt 0.3089 0.2536
vt 0.1401 0.0324
vt 0.2369 0.0002
vt 0.2781 0.2419
vt 0.2698 0.2410
vt 0.3225 0.0008
vt 0.2880 0.2444
vt 0.4027 0.0263
vt 0.2986 0.2483
vt 0.2171 0.5549
vt 0.2621 0.5549
vt 0.2619 0.6770
vt 0.2181 0.6780
vt 0.5540 0.0025
vt 0.6018 0.0002
vt 0.6128 0.1932
vt 0.5637 0.2012
vt 0.6802 0.4539
vt 0.6416 0.4765
vt 0.7187 0.5641
vt 0.2621 0.9998
vt 0.7559 0.4747
vt 0.1785 0.9956
vt 0.1656 0.7188
vt 0.7264 0.3927
vt 0.1210 0.5578
vt 0.1411 0.5559
vt 0.1513 0.6088
vt 0.1218 0.7178
vt 0.1685 0.6297
vt 0.1933 0.6111
vt 0.1999 0.5549
vt 0.6563 0.0015
vt 0.6604 0.1870
vt 0.7053 0.0023
vt 0.7012 0.1811
vt 0.7616 0.0028
vt 0.7678 0.1779
vt 0.8128 0.0010
vt 0.8092 0.2202
vt 0.0697 0.5581
vt 0.0672 0.7208
vt 0.0161 0.5560
vt 0.0002 0.7261
vt 0.8653 0.0037
vt 0.8653 0.1713
vt 0.1379 0.8933
vt 0.0809 0.9044
vt 0.8440 0.3668
vt 0.4869 0.4636
vt 0.4230 0.5165
vt 0.2969 0.3091
vt 0.3042 0.2997
vt 0.0955 0.4971
vt 0.0379 0.4340
vt 0.2513 0.3003
vt 0.2532 0.3008
vt 0.0722 0.0884
vt 0.2630 0.2500
vt 0.0023 0.3363
vt 0.2511 0.2878
vt 0.0002 0.2471
vt 0.2530 0.2745
vt 0.0243 0.1621
vt 0.2572 0.2616
vt 0.5537 0.2339
vt 0.3125 0.2762
vt 0.5537 0.3171
vt 0.3086 0.2877
vt 0.5312 0.3953
vt 0.3066 0.2937
vt 0.3309 0.5500
vt 0.2750 0.3054
vt 0.2475 0.5545
vt 0.2616 0.3028
vt 0.1674 0.5371
vt 0.2557 0.3014
vt 0.6329 0.5644
vt 0.6151 0.5940
vt 0.5926 0.5946
vt 0.6014 0.5696
vt 0.5540 0.6009
vt 0.5769 0.5962
vt 0.5764 0.6196
vt 0.5992 0.6318
vt 0.6189 0.6388
vt 0.6252 0.6108
vt 0.6424 0.6416
vt 0.6351 0.6233
vt 0.6424 0.5904
vt 0.5268 0.5589
vt 0.5268 0.5819
vt 0.5149 0.5726
vt 0.5077 0.5549
vt 0.5080 0.5885
vt 0.4971 0.5720
vt 0.3093 0.7368
vt 0.3093 0.7837
vt 0.2624 0.7837
vt 0.2624 0.7368
vt 0.4968 0.7368
vt 0.4968 0.7837
vt 0.4499 0.7837
vt 0.4499 0.7368
vt 0.4030 0.7837
vt 0.4030 0.7583
vt 0.3723 0.5557
vt 0.3721 0.5737
vt 0.3312 0.5959
vt 0.3316 0.5553
vt 0.4130 0.5561
vt 0.4128 0.5737
vt 0.4536 0.5565
vt 0.4533 0.5971
vt 0.4943 0.5569
vt 0.4939 0.5975
vt 0.4833 0.6174
vt 0.4727 0.6192
vt 0.4632 0.6174
vt 0.4968 0.6430
vt 0.4968 0.6899
vt 0.4778 0.6899
vt 0.4499 0.6430
vt 0.2906 0.5955
vt 0.2910 0.5549
vt 0.3274 0.7368
vt 0.3312 0.7666
vt 0.3561 0.7757
vt 0.3767 0.7721
vt 0.3561 0.7837
vt 0.3842 0.7497
vt 0.4671 0.6322
vt 0.4838 0.6331
vn -1.0000 0.0000 0.0000
vn -0.0144 -0.5612 -0.8275
vn 0.0000 -0.3379 0.9412
vn 0.0012 0.4342 0.9008
vn 0.0169 0.9988 -0.0465
vn -0.0392 0.2223 -0.9742
vn 0.0808 0.9941 -0.0728
vn 0.4143 0.3432 -0.8429
vn -0.1701 0.4977 -0.8505
vn 0.2197 0.4239 0.8786
vn 0.3812 0.9218 0.0705
vn -0.3826 -0.2400 -0.8922
vn -0.1350 -0.4127 -0.9008
vn 0.0000 -0.5704 -0.8213
vn -0.4040 -0.2623 0.8763
vn -0.0108 -0.2333 0.9723
vn 0.4829 -0.2049 0.8513
vn 0.4150 -0.2588 0.8722
vn 0.9317 -0.3633 0.0000
vn -0.2760 0.6574 0.7012
vn -0.0067 0.6540 0.7564
vn 0.3173 0.6809 0.6601
vn 0.9492 -0.1855 -0.2543
vn 0.6158 0.7821 0.0954
vn 0.4130 -0.2962 -0.8612
vn 0.8391 -0.2139 -0.5001
vn 0.8385 -0.2174 0.4997
vn 0.8080 -0.1501 0.5697
vn 0.8603 -0.2771 -0.4278
vn 0.3864 0.4510 -0.8045
vn -0.5716 0.3577 -0.7384
vn -0.1398 0.3109 -0.9401
vn 0.2256 0.8408 -0.4922
vn 0.3943 0.9168 0.0638
vn 0.7951 0.4480 -0.4088
vn 0.7504 0.6485 0.1277
vn 0.6152 0.7483 0.2481
vn 0.1168 -0.4565 -0.8820
vn 0.0000 0.0000 -1.0000
vn 1.0000 0.0000 0.0000
vn 0.0000 0.0000 1.0000
vn -0.3071 0.6946 -0.6506
vn -0.9403 0.3340 0.0661
vn -0.8720 0.3755 -0.3140
vn -0.3309 0.3755 -0.8658
vn 0.1071 0.3384 -0.9349
vn 0.9368 -0.1555 -0.3132
vn 0.7714 0.4668 -0.4324
vn 0.2896 0.7240 -0.6261
vn 0.9423 0.3247 0.0812
vn 0.7928 0.3194 -0.5191
vn -0.8872 0.2874 -0.3608
vn -0.9918 -0.0221 -0.1255
vn 0.4311 0.6398 0.6363
vn -0.3661 0.8890 0.2750
vn 0.7399 0.6675 -0.0833
vn -0.0446 0.8489 -0.5267
vn -0.4102 0.8791 -0.2426
vn 0.0000 1.0000 0.0000
usemtl Stein
s off
f 28/1/1 4/2/1 3/3/1 29/4/1
f 2/5/1 25/6/1 32/7/1 1/8/1
f 25/6/1 26/9/1 31/10/1 32/7/1
f 26/9/1 27/11/1 30/12/1 31/10/1
f 27/11/1 28/1/1 29/4/1 30/12/1
f 44/13/2 28/14/2 50/15/2 51/16/2
f 25/17/3 45/18/3 54/19/3 53/20/3
f 53/20/4 54/19/4 56/21/4 55/22/4
f 55/22/5 56/21/5 57/23/5
f 50/15/6 57/24/6 51/16/6
f 57/23/7 56/21/7 59/25/7
f 57/24/8 59/26/8 51/16/8
f 51/16/9 59/26/9 52/27/9
f 56/21/10 54/19/10 58/28/10
f 59/25/11 56/21/11 58/28/11
f 49/29/12 70/30/12 71/31/12 60/32/12
f 60/32/13 71/31/13 73/33/13 52/27/13
f 51/16/14 72/34/14 74/35/14 44/13/14
f 45/18/15 47/36/15 62/37/15 54/19/15
f 47/36/16 46/38/16 61/39/16 62/37/16
f 46/38/17 43/40/17 61/39/17
f 61/39/18 43/40/18 63/41/18
f 43/40/19 42/42/19 63/41/19
f 58/28/20 54/19/20 62/37/20
f 62/37/21 61/39/21 58/28/21
f 63/41/22 58/28/22 61/39/22
f 63/41/23 42/42/23 64/43/23
f 63/41/24 64/43/24 58/28/24
f 41/44/25 49/29/25 60/32/25 65/45/25
f 48/46/26 41/44/26 66/47/26
f 48/48/27 66/49/27 42/42/27
f 64/43/28 42/42/28 66/49/28
f 66/47/29 41/44/29 65/45/29
f 65/45/30 60/32/30 67/50/30 68/51/30
f 59/26/31 67/50/31 52/27/31
f 52/27/32 67/50/32 60/32/32
f 67/50/33 59/26/33 68/51/33
f 59/25/34 58/28/34 68/52/34
f 65/45/35 68/51/35 66/47/35
f 66/49/36 68/52/36 64/43/36
f 64/43/37 68/52/37 58/28/37
f 73/33/38 72/34/38 51/16/38 52/27/38
usemtl Erde
f 12/53/39 8/54/39 7/55/39 13/56/39
f 36/57/40 6/58/40 5/59/40 37/60/40
f 20/61/41 2/5/41 1/8/41 21/62/41
f 6/58/41 17/63/41 24/64/41 5/59/41
f 17/63/41 18/65/41 23/66/41 24/64/41
f 18/65/41 19/67/41 22/68/41 23/66/41
f 19/67/41 20/61/41 21/62/41 22/68/41
f 4/2/39 9/69/39 16/70/39 3/3/39
f 9/69/39 10/71/39 15/72/39 16/70/39
f 10/71/39 11/73/39 14/74/39 15/72/39
f 11/73/39 12/53/39 13/56/39 14/74/39
f 8/54/40 33/75/40 40/76/40 7/55/40
f 33/75/40 34/77/40 39/78/40 40/76/40
f 34/77/40 35/79/40 38/80/40 39/78/40
f 35/79/40 36/57/40 37/60/40 38/80/40
usemtl Stein_klein
f 73/81/42 78/82/42 77/83/42 72/84/42
f 74/85/43 72/84/43 81/86/43
f 75/87/44 81/86/44 77/83/44
f 69/88/45 75/87/45 77/83/45 78/82/45
f 76/89/46 69/88/46 78/82/46 79/90/46
f 70/91/47 76/89/47 80/92/47
f 71/93/48 80/92/48 79/90/48
f 71/93/49 79/90/49 78/82/49 73/81/49
f 80/92/50 71/93/50 70/91/50
f 80/92/51 76/89/51 79/90/51
f 81/86/52 72/84/52 77/83/52
f 81/86/53 75/87/53 74/85/53
f 82/94/54 86/95/54 87/96/54
f 83/97/55 82/94/55 87/96/55
f 86/95/56 85/98/56 87/96/56
f 85/98/57 84/99/57 87/96/57
f 83/97/58 87/96/58 84/99/58
usemtl Gras
f 44/100/59 9/101/59 4/102/59 28/103/59
f 33/104/59 8/105/59 12/106/59 41/107/59
f 41/107/59 12/106/59 11/108/59 49/109/59
f 19/110/59 47/111/59 45/112/59 20/113/59
f 18/114/59 46/115/59 47/111/59 19/110/59
f 17/116/59 43/117/59 46/115/59 18/114/59
f 6/118/59 36/119/59 43/117/59 17/116/59
f 36/119/59 86/120/59 82/121/59 83/122/59 43/117/59
f 35/123/59 34/124/59 48/125/59 42/126/59
f 34/124/59 33/104/59 41/107/59 48/125/59
f 20/113/59 45/112/59 25/127/59 2/128/59
f 74/129/59 75/130/59 9/101/59 44/100/59
f 69/131/59 76/132/59 11/108/59 10/133/59
f 11/108/59 76/132/59 70/134/59 49/109/59
f 9/101/59 75/130/59 69/131/59 10/133/59
f 43/117/59 83/122/59 84/135/59 85/136/59 86/120/59 36/119/59 35/123/59 42/126/59
