# Blender v2.78 (sub 0) OBJ File: 'nicht_begehbar_Baum.blend'
# www.blender.org
mtllib Tanne.mtl
o Cylinder
v 0.000000 0.408592 -1.000000
v 0.000000 -0.391214 -1.000000
v 1.000000 0.408592 -1.000000
v 1.000000 -0.391214 -1.000000
v 1.000000 0.408592 0.000000
v 1.000000 -0.391214 0.000000
v 1.000000 0.408592 1.000000
v 1.000000 -0.391214 1.000000
v -0.000000 0.408592 1.000000
v -0.000000 -0.391214 1.000000
v -1.000000 0.408592 1.000000
v -1.000000 -0.391214 1.000000
v -1.000000 0.408592 -0.000000
v -1.000000 -0.391214 -0.000000
v -1.000000 0.408592 -1.000000
v -1.000000 -0.391214 -1.000000
v -0.000000 0.408592 -0.173715
v 0.122835 0.408592 -0.122835
v 0.173715 0.408592 -0.000000
v 0.122835 0.408592 0.122835
v -0.000000 0.408592 0.173715
v -0.122835 0.408592 0.122835
v -0.173715 0.408592 -0.000000
v -0.122835 0.408592 -0.122835
v -0.122835 0.898105 -0.122835
v -0.173715 0.898105 -0.000000
v -0.122835 0.898105 0.122835
v -0.000000 0.898105 0.173715
v 0.122835 0.898105 0.122835
v 0.173715 0.898105 -0.000000
v 0.122835 0.898105 -0.122835
v -0.000000 0.898105 -0.173715
v 0.634395 0.787802 -0.634395
v 0.897171 0.866792 -0.000000
v -0.634395 0.787802 0.634395
v -0.897171 0.732391 -0.000000
v -0.634395 0.732391 -0.634395
v 0.634395 0.738981 0.634395
v -0.000000 0.832911 0.897171
v -0.000000 0.751640 -0.897171
v 0.308044 1.359907 -0.308044
v 0.435640 1.359907 -0.000000
v -0.308044 1.359907 0.308044
v -0.435640 1.359907 -0.000000
v -0.308044 1.359907 -0.308044
v 0.308044 1.359907 0.308044
v -0.000000 1.359907 0.435640
v -0.000000 1.359907 -0.435640
v 0.566539 1.263609 -0.566539
v 0.801207 1.263609 -0.000000
v -0.566539 1.263609 0.566539
v -0.801207 1.308718 -0.000000
v -0.566539 1.263609 -0.566539
v 0.566539 1.263609 0.566539
v -0.000000 1.214788 0.801207
v -0.000000 1.208198 -0.801207
v 0.313910 1.825913 -0.313910
v 0.443936 1.825913 -0.000000
v -0.313910 1.825913 0.313910
v -0.443936 1.825913 -0.000000
v -0.313910 1.825913 -0.313910
v 0.313910 1.825913 0.313910
v -0.000000 1.825913 0.443936
v -0.000000 1.825913 -0.443936
v 0.495772 1.828922 -0.495772
v 0.701128 1.786092 -0.000000
v -0.495772 1.786092 0.495772
v -0.701128 1.831202 -0.000000
v -0.495772 1.749931 -0.495772
v 0.495772 1.737271 0.495772
v -0.000000 1.786092 0.701128
v -0.000000 1.831202 -0.701128
v 0.253188 2.344418 -0.253188
v 0.358062 2.344418 -0.000000
v -0.253188 2.344418 0.253188
v -0.358062 2.344418 -0.000000
v -0.253188 2.344418 -0.253188
v 0.253188 2.344418 0.253188
v -0.000000 2.344418 0.358062
v -0.000000 2.344418 -0.358062
v 0.392160 2.300115 -0.392160
v 0.554599 2.300115 -0.000000
v -0.392160 2.300115 0.392160
v -0.554599 2.244704 -0.000000
v -0.392160 2.300115 -0.392160
v 0.392160 2.379106 0.392160
v -0.000000 2.345225 0.554599
v -0.000000 2.300115 -0.554599
v 0.198735 2.720273 -0.198735
v 0.281053 2.720273 -0.000000
v -0.198735 2.720273 0.198735
v -0.281053 2.720273 -0.000000
v -0.198735 2.720273 -0.198735
v 0.198735 2.720273 0.198735
v -0.000000 2.720273 0.281053
v -0.000000 2.720273 -0.281053
v 0.331251 2.677255 -0.331251
v 0.468459 2.677255 -0.000000
v -0.331251 2.677255 0.331250
v -0.468459 2.628434 -0.000000
v -0.331251 2.677255 -0.331251
v 0.331251 2.677255 0.331250
v -0.000000 2.621844 0.468459
v -0.000000 2.686203 -0.468459
v 0.105397 3.235052 -0.105397
v 0.149054 3.235052 -0.000000
v -0.105397 3.235052 0.105397
v -0.149054 3.235052 -0.000000
v -0.105397 3.235052 -0.105397
v 0.105397 3.235052 0.105397
v -0.000000 3.235052 0.149054
v -0.000000 3.235052 -0.149054
v 0.177110 3.180537 -0.177110
v 0.250472 3.228582 -0.000000
v -0.177110 3.180537 0.177110
v -0.250472 3.149591 -0.000000
v -0.177110 3.180537 -0.177110
v 0.177110 3.149591 0.177110
v -0.000000 3.237178 0.250472
v -0.000000 3.237178 -0.250472
v -0.000000 3.738548 -0.000000
vn -0.3827 0.0000 0.9239
vn 0.9239 0.0000 -0.3827
vn 0.9239 0.0000 0.3827
vn -0.9239 0.0000 0.3827
vn -0.9239 0.0000 -0.3827
vn 0.3827 0.0000 0.9239
vn -0.3827 0.0000 -0.9239
vn 0.3827 0.0000 -0.9239
vn 0.0000 -1.0000 -0.0000
vn -0.8783 0.3735 -0.2985
vn 0.8056 0.3957 -0.4410
vn 0.4568 0.3976 -0.7958
vn 0.7803 0.3833 0.4942
vn 0.5091 0.3846 0.7699
vn -0.4568 0.3976 0.7958
vn -0.8783 0.3735 0.2985
vn -0.4568 0.3976 -0.7958
vn 0.1132 -0.9728 0.2020
vn -0.1909 -0.9751 -0.1124
vn -0.0432 -0.9989 -0.0179
vn -0.0636 -0.9868 0.1492
vn 0.2223 -0.9706 0.0921
vn 0.1504 -0.9867 -0.0623
vn 0.0371 -0.9953 -0.0897
vn -0.0263 -0.9798 0.1984
vn 0.2834 0.5797 -0.7640
vn 0.3836 0.5795 0.7190
vn 0.6988 0.6541 0.2895
vn -0.7408 0.5976 0.3068
vn -0.7642 0.5620 -0.3165
vn 0.7024 0.6100 -0.3669
vn -0.3303 0.5650 -0.7561
vn -0.2975 0.6290 0.7182
vn -0.2533 -0.9617 -0.1049
vn 0.2002 -0.9666 -0.1599
vn 0.1384 -0.9887 0.0573
vn 0.0725 -0.9270 -0.3680
vn -0.0683 -0.9215 0.3824
vn -0.2533 -0.9617 0.1049
vn -0.1049 -0.9617 -0.2533
vn 0.1049 -0.9617 0.2533
vn 0.3300 0.5062 0.7968
vn -0.3300 0.5062 -0.7968
vn 0.7968 0.5062 0.3300
vn -0.7780 0.5127 0.3631
vn -0.7788 0.5380 -0.3226
vn -0.2997 0.4815 0.8236
vn 0.2957 0.4783 -0.8269
vn 0.7968 0.5062 -0.3300
vn 0.0633 -0.9862 -0.1527
vn 0.0039 -0.9998 -0.0206
vn -0.0492 -0.9966 -0.0657
vn -0.2006 -0.9446 -0.2598
vn 0.1166 -0.9525 0.2814
vn -0.1527 -0.9862 -0.0632
vn 0.1527 -0.9862 -0.0633
vn -0.0203 -0.9879 0.1535
vn -0.7861 0.5255 -0.3256
vn -0.3328 0.4937 0.8034
vn 0.3256 0.5255 -0.7861
vn 0.7870 0.5238 -0.3260
vn 0.3769 0.4696 0.7984
vn -0.4016 0.4817 -0.7789
vn 0.8034 0.4937 0.3328
vn -0.7827 0.5007 0.3698
vn 0.0907 -0.9715 0.2190
vn -0.2190 -0.9715 -0.0907
vn 0.2190 -0.9715 -0.0907
vn 0.4516 -0.8901 0.0613
vn 0.1126 -0.9936 0.0041
vn -0.0907 -0.9715 0.2190
vn -0.2190 -0.9715 0.0907
vn 0.1321 -0.9847 0.1136
vn 0.7917 0.5154 -0.3279
vn 0.3075 0.5952 0.7424
vn -0.3279 0.5154 -0.7917
vn 0.8154 0.5309 0.2308
vn -0.7917 0.5154 0.3279
vn -0.8328 0.4790 -0.2773
vn -0.3174 0.5588 0.7662
vn 0.3279 0.5154 -0.7917
vn 0.4395 -0.8969 0.0499
vn 0.0445 -0.8844 -0.4645
vn -0.0739 -0.9812 0.1784
vn -0.2228 -0.9705 0.0923
vn -0.0923 -0.9705 -0.2228
vn 0.1110 -0.9725 0.2047
vn -0.2228 -0.9705 -0.0923
vn 0.2228 -0.9705 -0.0923
vn -0.8166 0.4676 0.3383
vn -0.8480 0.4465 -0.2855
vn -0.2786 0.4437 0.8518
vn 0.3371 0.4736 -0.8137
vn 0.8166 0.4676 -0.3383
vn 0.3383 0.4676 0.8166
vn -0.3487 0.4696 -0.8111
vn 0.8166 0.4676 0.3383
vn -0.2579 -0.7388 -0.6226
vn 0.1924 -0.8644 0.4646
vn -0.0636 -0.9976 -0.0264
vn 0.4646 -0.8644 -0.1924
vn 0.6387 -0.7580 0.1321
vn 0.2970 -0.9547 0.0200
vn -0.2970 -0.9547 -0.0200
vn -0.3042 -0.8800 0.3647
vn 0.0819 -0.9768 0.1978
vn -0.0371 -0.9953 -0.0897
vn -0.0752 -0.9710 -0.2268
vn -0.0432 -0.9989 0.0179
vn 0.2233 -0.9747 -0.0073
vn 0.1121 -0.9885 -0.1010
vn -0.0623 -0.9867 0.1504
vn 0.3068 0.5976 -0.7408
vn 0.2975 0.6290 0.7182
vn 0.7020 0.5835 0.4083
vn -0.7754 0.5703 0.2714
vn 0.6988 0.6541 -0.2895
vn -0.3134 0.5740 -0.7565
vn -0.3410 0.6050 0.7195
vn 0.1384 -0.9887 -0.0573
vn 0.2002 -0.9666 0.1599
vn 0.1049 -0.9617 -0.2533
vn -0.1049 -0.9617 0.2533
vn -0.0725 -0.9270 -0.3680
vn 0.0683 -0.9215 0.3824
vn 0.2997 0.4815 0.8236
vn -0.2957 0.4783 -0.8269
vn -0.7788 0.5380 0.3226
vn -0.7780 0.5127 -0.3631
vn -0.3300 0.5062 0.7968
vn 0.3300 0.5062 -0.7968
vn 0.0048 -0.9999 -0.0117
vn -0.1527 -0.9862 0.0632
vn -0.0633 -0.9862 -0.1527
vn 0.1535 -0.9879 -0.0203
vn -0.2598 -0.9446 -0.2006
vn -0.0205 -0.9964 -0.0822
vn 0.2814 -0.9525 0.1166
vn -0.7789 0.4817 -0.4016
vn 0.3280 0.5242 -0.7859
vn 0.8143 0.5004 -0.2941
vn 0.3328 0.4937 0.8034
vn -0.3256 0.5255 -0.7861
vn 0.7984 0.4696 0.3769
vn -0.7861 0.5255 0.3256
vn 0.0333 -0.9770 0.2106
vn 0.4516 -0.8901 -0.0613
vn 0.2190 -0.9715 0.0907
vn 0.0907 -0.9715 -0.2190
vn 0.0017 -1.0000 0.0041
vn 0.2730 0.5669 0.7773
vn 0.7424 0.5952 0.3075
vn -0.8328 0.4790 0.2773
vn -0.7917 0.5154 -0.3279
vn -0.3766 0.5248 0.7634
vn 0.2228 -0.9705 0.0923
vn 0.0923 -0.9705 -0.2228
vn -0.1110 -0.9725 0.2047
vn -0.0445 -0.8844 -0.4645
vn 0.0739 -0.9812 0.1784
vn 0.4395 -0.8969 -0.0499
vn -0.8480 0.4465 0.2855
vn -0.8166 0.4676 -0.3383
vn -0.3383 0.4676 0.8166
vn 0.3487 0.4696 -0.8111
vn 0.2786 0.4437 0.8518
vn -0.3371 0.4736 -0.8137
vn -0.4369 -0.8993 0.0189
vn 0.2970 -0.9547 -0.0200
vn -0.4021 -0.7626 -0.5067
vn 0.6387 -0.7580 -0.1321
vn 0.4646 -0.8644 0.1924
vn 0.1924 -0.8644 -0.4646
vn -0.1924 -0.8644 0.4646
vn -0.0636 -0.9976 0.0264
vn 0.0000 0.0000 1.0000
vn -1.0000 0.0000 0.0000
vn 0.0000 0.0000 -1.0000
vn 1.0000 0.0000 0.0000
usemtl Baumstamm
s off
f 18//1 31//1 32//1
f 23//2 26//2 27//2
f 24//3 25//3 26//3
f 19//4 30//4 31//4
f 20//5 29//5 30//5
f 17//6 32//6 25//6
f 21//7 28//7 29//7
f 22//8 27//8 28//8
f 17//1 18//1 32//1
f 22//2 23//2 27//2
f 23//3 24//3 26//3
f 18//4 19//4 31//4
f 19//5 20//5 30//5
f 24//6 17//6 25//6
f 20//7 21//7 29//7
f 21//8 22//8 28//8
usemtl Gras
f 5//9 19//9 18//9
f 9//9 11//9 22//9
f 1//9 17//9 24//9
f 1//9 3//9 18//9
f 5//9 7//9 20//9
f 13//9 23//9 22//9
f 9//9 21//9 20//9
f 13//9 15//9 24//9
f 3//9 5//9 18//9
f 21//9 9//9 22//9
f 15//9 1//9 24//9
f 17//9 1//9 18//9
f 19//9 5//9 20//9
f 11//9 13//9 22//9
f 7//9 9//9 20//9
f 23//9 13//9 24//9
usemtl Tanne
f 117//10 116//10 121//10
f 114//11 113//11 121//11
f 113//12 120//12 121//12
f 118//13 114//13 121//13
f 119//14 118//14 121//14
f 115//15 119//15 121//15
f 116//16 115//16 121//16
f 120//17 117//17 121//17
f 25//18 37//18 40//18
f 29//19 38//19 39//19
f 29//20 30//20 34//20
f 31//21 33//21 34//21
f 26//22 36//22 37//22
f 26//23 27//23 35//23
f 27//24 28//24 39//24
f 32//25 40//25 33//25
f 33//26 40//26 48//26
f 39//27 38//27 46//27
f 34//28 42//28 46//28
f 35//29 43//29 44//29
f 36//30 44//30 45//30
f 34//31 33//31 41//31
f 40//32 37//32 45//32
f 39//33 47//33 43//33
f 42//34 50//34 54//34
f 43//35 51//35 52//35
f 45//36 44//36 52//36
f 47//37 55//37 51//37
f 48//38 56//38 49//38
f 41//39 49//39 50//39
f 47//40 46//40 54//40
f 48//41 45//41 53//41
f 54//42 62//42 63//42
f 53//43 61//43 64//43
f 50//44 58//44 62//44
f 52//45 51//45 59//45
f 52//46 60//46 61//46
f 51//47 55//47 63//47
f 49//48 56//48 64//48
f 49//49 57//49 58//49
f 59//50 63//50 71//50
f 64//51 72//51 65//51
f 57//52 65//52 66//52
f 62//53 70//53 71//53
f 64//54 61//54 69//54
f 62//55 58//55 66//55
f 60//56 59//56 67//56
f 60//57 68//57 69//57
f 68//58 76//58 77//58
f 71//59 79//59 75//59
f 72//60 80//60 73//60
f 65//61 73//61 74//61
f 71//62 70//62 78//62
f 72//63 69//63 77//63
f 66//64 74//64 78//64
f 68//65 67//65 75//65
f 77//66 85//66 88//66
f 78//67 74//67 82//67
f 76//68 75//68 83//68
f 76//69 84//69 85//69
f 79//70 87//70 83//70
f 80//71 88//71 81//71
f 73//72 81//72 82//72
f 78//73 86//73 87//73
f 81//74 89//74 90//74
f 86//75 94//75 95//75
f 85//76 93//76 96//76
f 86//77 82//77 90//77
f 83//78 91//78 92//78
f 85//79 84//79 92//79
f 87//80 95//80 91//80
f 88//81 96//81 89//81
f 92//82 100//82 101//82
f 95//83 103//83 99//83
f 89//84 96//84 104//84
f 89//85 97//85 98//85
f 95//86 94//86 102//86
f 93//87 101//87 104//87
f 94//88 90//88 98//88
f 92//89 91//89 99//89
f 99//90 107//90 108//90
f 101//91 100//91 108//91
f 99//92 103//92 111//92
f 104//93 112//93 105//93
f 97//94 105//94 106//94
f 102//95 110//95 111//95
f 104//96 101//96 109//96
f 98//97 106//97 110//97
f 111//98 110//98 118//98
f 112//99 109//99 117//99
f 110//100 106//100 114//100
f 108//101 107//101 115//101
f 108//102 116//102 117//102
f 111//103 119//103 115//103
f 112//104 120//104 113//104
f 105//105 113//105 114//105
f 32//106 25//106 40//106
f 28//107 29//107 39//107
f 38//108 29//108 34//108
f 30//109 31//109 34//109
f 25//22 26//22 37//22
f 36//110 26//110 35//110
f 35//111 27//111 39//111
f 31//112 32//112 33//112
f 41//113 33//113 48//113
f 47//114 39//114 46//114
f 38//115 34//115 46//115
f 36//116 35//116 44//116
f 37//30 36//30 45//30
f 42//117 34//117 41//117
f 48//118 40//118 45//118
f 35//119 39//119 43//119
f 46//34 42//34 54//34
f 44//120 43//120 52//120
f 53//121 45//121 52//121
f 43//122 47//122 51//122
f 41//123 48//123 49//123
f 42//39 41//39 50//39
f 55//124 47//124 54//124
f 56//125 48//125 53//125
f 55//126 54//126 63//126
f 56//127 53//127 64//127
f 54//44 50//44 62//44
f 60//128 52//128 59//128
f 53//129 52//129 61//129
f 59//130 51//130 63//130
f 57//131 49//131 64//131
f 50//49 49//49 58//49
f 67//50 59//50 71//50
f 57//132 64//132 65//132
f 58//133 57//133 66//133
f 63//134 62//134 71//134
f 72//135 64//135 69//135
f 70//136 62//136 66//136
f 68//137 60//137 67//137
f 61//138 60//138 69//138
f 69//139 68//139 77//139
f 67//59 71//59 75//59
f 65//140 72//140 73//140
f 66//141 65//141 74//141
f 79//142 71//142 78//142
f 80//143 72//143 77//143
f 70//144 66//144 78//144
f 76//145 68//145 75//145
f 80//66 77//66 88//66
f 86//146 78//146 82//146
f 84//147 76//147 83//147
f 77//148 76//148 85//148
f 75//149 79//149 83//149
f 73//71 80//71 81//71
f 74//72 73//72 82//72
f 79//150 78//150 87//150
f 82//74 81//74 90//74
f 87//151 86//151 95//151
f 88//76 85//76 96//76
f 94//152 86//152 90//152
f 84//153 83//153 92//153
f 93//154 85//154 92//154
f 83//155 87//155 91//155
f 81//81 88//81 89//81
f 93//156 92//156 101//156
f 91//157 95//157 99//157
f 97//158 89//158 104//158
f 90//85 89//85 98//85
f 103//159 95//159 102//159
f 96//160 93//160 104//160
f 102//88 94//88 98//88
f 100//161 92//161 99//161
f 100//162 99//162 108//162
f 109//163 101//163 108//163
f 107//164 99//164 111//164
f 97//165 104//165 105//165
f 98//94 97//94 106//94
f 103//166 102//166 111//166
f 112//167 104//167 109//167
f 102//97 98//97 110//97
f 119//168 111//168 118//168
f 120//169 112//169 117//169
f 118//170 110//170 114//170
f 116//171 108//171 115//171
f 109//172 108//172 117//172
f 107//173 111//173 115//173
f 105//174 112//174 113//174
f 106//175 105//175 114//175
usemtl Erde
f 2//176 4//176 3//176
f 4//177 6//177 5//177
f 6//177 8//177 7//177
f 8//178 10//178 9//178
f 10//178 12//178 11//178
f 12//179 14//179 13//179
f 16//176 2//176 1//176
f 14//179 16//179 15//179
f 11//179 12//179 13//179
f 9//178 10//178 11//178
f 7//178 8//178 9//178
f 5//177 6//177 7//177
f 3//177 4//177 5//177
f 1//176 2//176 3//176
f 15//176 16//176 1//176
f 13//179 14//179 15//179
