# Blender v2.78 (sub 0) OBJ File: 'nicht_begehbar_Baum.blend'
# www.blender.org
mtllib Tanne.mtl
o Cylinder
v 0.000000 0.408592 -1.000000
v 0.000000 -0.391214 -1.000000
v 1.000000 0.408592 -1.000000
v 1.000000 -0.391214 -1.000000
v 1.000000 0.408592 0.000000
v 1.000000 -0.391214 0.000000
v 1.000000 0.408592 1.000000
v 1.000000 -0.391214 1.000000
v -0.000000 0.408592 1.000000
v -0.000000 -0.391214 1.000000
v -1.000000 0.408592 1.000000
v -1.000000 -0.391214 1.000000
v -1.000000 0.408592 -0.000000
v -1.000000 -0.391214 -0.000000
v -1.000000 0.408592 -1.000000
v -1.000000 -0.391214 -1.000000
v -0.000000 0.408592 -0.173715
v 0.122835 0.408592 -0.122835
v 0.173715 0.408592 -0.000000
v 0.122835 0.408592 0.122835
v -0.000000 0.408592 0.173715
v -0.122835 0.408592 0.122835
v -0.173715 0.408592 -0.000000
v -0.122835 0.408592 -0.122835
v -0.122835 0.898105 -0.122835
v -0.173715 0.898105 -0.000000
v -0.122835 0.898105 0.122835
v -0.000000 0.898105 0.173715
v 0.122835 0.898105 0.122835
v 0.173715 0.898105 -0.000000
v 0.122835 0.898105 -0.122835
v -0.000000 0.898105 -0.173715
v 0.634395 0.787802 -0.634395
v 0.897171 0.866792 -0.000000
v -0.634395 0.787802 0.634395
v -0.897171 0.732391 -0.000000
v -0.634395 0.732391 -0.634395
v 0.634395 0.738981 0.634395
v -0.000000 0.832911 0.897171
v -0.000000 0.751640 -0.897171
v 0.308044 1.359907 -0.308044
v 0.435640 1.359907 -0.000000
v -0.308044 1.359907 0.308044
v -0.435640 1.359907 -0.000000
v -0.308044 1.359907 -0.308044
v 0.308044 1.359907 0.308044
v -0.000000 1.359907 0.435640
v -0.000000 1.359907 -0.435640
v 0.566539 1.263609 -0.566539
v 0.801207 1.263609 -0.000000
v -0.566539 1.263609 0.566539
v -0.801207 1.308718 -0.000000
v -0.566539 1.263609 -0.566539
v 0.566539 1.263609 0.566539
v -0.000000 1.214788 0.801207
v -0.000000 1.208198 -0.801207
v 0.313910 1.825913 -0.313910
v 0.443936 1.825913 -0.000000
v -0.313910 1.825913 0.313910
v -0.443936 1.825913 -0.000000
v -0.313910 1.825913 -0.313910
v 0.313910 1.825913 0.313910
v -0.000000 1.825913 0.443936
v -0.000000 1.825913 -0.443936
v 0.495772 1.828922 -0.495772
v 0.701128 1.786092 -0.000000
v -0.495772 1.786092 0.495772
v -0.701128 1.831202 -0.000000
v -0.495772 1.749931 -0.495772
v 0.495772 1.737271 0.495772
v -0.000000 1.786092 0.701128
v -0.000000 1.831202 -0.701128
v 0.253188 2.344418 -0.253188
v 0.358062 2.344418 -0.000000
v -0.253188 2.344418 0.253188
v -0.358062 2.344418 -0.000000
v -0.253188 2.344418 -0.253188
v 0.253188 2.344418 0.253188
v -0.000000 2.344418 0.358062
v -0.000000 2.344418 -0.358062
v 0.392160 2.300115 -0.392160
v 0.554599 2.300115 -0.000000
v -0.392160 2.300115 0.392160
v -0.554599 2.244704 -0.000000
v -0.392160 2.300115 -0.392160
v 0.392160 2.379106 0.392160
v -0.000000 2.345225 0.554599
v -0.000000 2.300115 -0.554599
v 0.198735 2.720273 -0.198735
v 0.281053 2.720273 -0.000000
v -0.198735 2.720273 0.198735
v -0.281053 2.720273 -0.000000
v -0.198735 2.720273 -0.198735
v 0.198735 2.720273 0.198735
v -0.000000 2.720273 0.281053
v -0.000000 2.720273 -0.281053
v 0.331251 2.677255 -0.331251
v 0.468459 2.677255 -0.000000
v -0.331251 2.677255 0.331250
v -0.468459 2.628434 -0.000000
v -0.331251 2.677255 -0.331251
v 0.331251 2.677255 0.331250
v -0.000000 2.621844 0.468459
v -0.000000 2.686203 -0.468459
v 0.105397 3.235052 -0.105397
v 0.149054 3.235052 -0.000000
v -0.105397 3.235052 0.105397
v -0.149054 3.235052 -0.000000
v -0.105397 3.235052 -0.105397
v 0.105397 3.235052 0.105397
v -0.000000 3.235052 0.149054
v -0.000000 3.235052 -0.149054
v 0.177110 3.180537 -0.177110
v 0.250472 3.228582 -0.000000
v -0.177110 3.180537 0.177110
v -0.250472 3.149591 -0.000000
v -0.177110 3.180537 -0.177110
v 0.177110 3.149591 0.177110
v -0.000000 3.237178 0.250472
v -0.000000 3.237178 -0.250472
v -0.000000 3.738548 -0.000000
vt 0.7901 0.2486
vt 0.7901 0.6102
vt 0.7838 0.6102
vt 0.8216 0.2489
vt 0.8216 0.6105
vt 0.8153 0.6104
vt 0.8280 0.2489
vt 0.8280 0.6105
vt 0.7964 0.2487
vt 0.7964 0.6103
vt 0.8027 0.2487
vt 0.8027 0.6103
vt 0.8343 0.2490
vt 0.8343 0.6106
vt 0.8090 0.2488
vt 0.8090 0.6104
vt 0.8153 0.2488
vt 0.7838 0.2486
vt 0.6641 0.6170
vt 0.6641 0.5884
vt 0.6683 0.5866
vt 0.6295 0.5824
vt 0.6295 0.5477
vt 0.6598 0.5781
vt 0.6987 0.5824
vt 0.6701 0.5824
vt 0.6683 0.5781
vt 0.6987 0.6170
vt 0.6295 0.6170
vt 0.6598 0.5866
vt 0.6641 0.5477
vt 0.6641 0.5763
vt 0.6581 0.5824
vt 0.6987 0.5477
vt 0.6849 0.0442
vt 0.6939 0.0004
vt 0.6939 0.5470
vt 0.6636 0.1260
vt 0.6681 0.0672
vt 0.6783 0.1156
vt 0.6504 0.0615
vt 0.6524 0.1645
vt 0.6403 0.1222
vt 0.6295 0.0997
vt 0.7297 0.1259
vt 0.7982 0.2479
vt 0.7565 0.2380
vt 0.7283 0.1188
vt 0.8269 0.0004
vt 0.7690 0.1118
vt 0.7255 0.1209
vt 0.6946 0.1081
vt 0.7250 0.1238
vt 0.7184 0.2023
vt 0.7315 0.1246
vt 0.8269 0.2285
vt 0.7320 0.1223
vt 0.8010 0.1581
vt 0.7309 0.1203
vt 0.7273 0.1255
vt 0.1720 0.0475
vt 0.1954 0.0107
vt 0.1954 0.6271
vt 0.1028 0.0970
vt 0.1194 0.0004
vt 0.1608 0.6282
vt 0.1506 0.1282
vt 0.1723 0.6275
vt 0.0746 0.0539
vt 0.1378 0.6302
vt 0.1264 0.6316
vt 0.0443 0.0010
vt 0.1149 0.6332
vt 0.1839 0.6272
vt 0.0004 0.0273
vt 0.0208 0.0043
vt 0.1493 0.6290
vt 0.7139 0.3913
vt 0.7831 0.3864
vt 0.7749 0.4273
vt 0.7162 0.3901
vt 0.7104 0.4565
vt 0.6946 0.3924
vt 0.7162 0.3924
vt 0.7167 0.3912
vt 0.7151 0.3899
vt 0.7831 0.5229
vt 0.7151 0.3926
vt 0.7665 0.2486
vt 0.7663 0.3498
vt 0.7141 0.3922
vt 0.7142 0.3905
vt 0.7029 0.3293
vt 0.3223 0.0489
vt 0.3412 0.6183
vt 0.3295 0.6188
vt 0.2375 0.0545
vt 0.2943 0.6214
vt 0.2826 0.6227
vt 0.3435 0.0483
vt 0.3530 0.6180
vt 0.2628 0.0980
vt 0.2806 0.0509
vt 0.3178 0.6195
vt 0.3060 0.6203
vt 0.2990 0.0004
vt 0.1961 0.0593
vt 0.2103 0.0010
vt 0.3648 0.0482
vt 0.3648 0.6179
vt 0.8517 0.3600
vt 0.8595 0.3660
vt 0.8568 0.3953
vt 0.8720 0.3333
vt 0.8836 0.3298
vt 0.8892 0.3457
vt 0.8808 0.3474
vt 0.8892 0.3900
vt 0.8672 0.3651
vt 0.8823 0.4395
vt 0.8567 0.3307
vt 0.8353 0.2486
vt 0.8740 0.3593
vt 0.8454 0.3444
vt 0.8405 0.3908
vt 0.8350 0.3446
vt 0.4546 0.5227
vt 0.4806 0.0047
vt 0.4901 0.0051
vt 0.4149 0.5657
vt 0.4613 0.0034
vt 0.4712 0.0041
vt 0.4905 0.5239
vt 0.4995 0.0053
vt 0.5090 0.0054
vt 0.3655 0.5170
vt 0.4324 0.0004
vt 0.4417 0.0015
vt 0.3920 0.6132
vt 0.4515 0.0025
vt 0.4697 0.6055
vt 0.3787 0.5622
vt 0.4334 0.5671
vt 0.8759 0.0571
vt 0.8721 0.0933
vt 0.8535 0.0882
vt 0.8762 0.0340
vt 0.8684 0.0415
vt 0.8276 0.0588
vt 0.8816 0.0550
vt 0.8867 0.0499
vt 0.9048 0.0853
vt 0.9026 0.1574
vt 0.8892 0.0387
vt 0.8950 0.0351
vt 0.8711 0.0549
vt 0.8378 0.0760
vt 0.8682 0.0496
vt 0.9048 0.0004
vt 0.5994 0.0500
vt 0.6139 0.4755
vt 0.6064 0.4758
vt 0.5747 0.1314
vt 0.5990 0.4762
vt 0.5916 0.4768
vt 0.6288 0.0495
vt 0.6288 0.4752
vt 0.6213 0.4753
vt 0.5847 0.0506
vt 0.5381 0.0544
vt 0.5842 0.4776
vt 0.5768 0.4784
vt 0.5097 0.0579
vt 0.5169 0.0004
vt 0.5573 0.0984
vt 0.6141 0.0496
vt 0.5369 0.5551
vt 0.6180 0.6125
vt 0.5448 0.5822
vt 0.5369 0.5555
vt 0.6180 0.4801
vt 0.5653 0.5535
vt 0.5375 0.5553
vt 0.5374 0.5551
vt 0.5238 0.5698
vt 0.5097 0.5501
vt 0.5197 0.5315
vt 0.5372 0.5556
vt 0.5410 0.5273
vt 0.5372 0.5550
vt 0.5374 0.5555
vt 0.5369 0.5553
vt 0.0486 0.9468
vt 0.5350 0.9486
vt 0.5350 0.9570
vt 0.0487 0.9676
vt 0.0060 0.9573
vt 0.0004 0.9361
vt 0.5350 0.9401
vt 0.0566 0.9782
vt 0.5352 0.9739
vt 0.5352 0.9822
vt 0.0488 0.9890
vt 0.5353 0.9907
vt 0.0488 0.9261
vt 0.5352 0.9316
vt 0.5351 0.9655
vt 0.0490 0.9154
vt 0.5353 0.9231
vt 0.8677 0.5306
vt 0.8644 0.5257
vt 0.8738 0.4402
vt 0.8538 0.5323
vt 0.8576 0.5363
vt 0.8609 0.5873
vt 0.8598 0.5252
vt 0.8587 0.5177
vt 0.8615 0.5375
vt 0.8650 0.5357
vt 0.8738 0.5859
vt 0.8712 0.6191
vt 0.8713 0.5305
vt 0.8502 0.5331
vt 0.8350 0.4776
vt 0.8557 0.5270
vt 0.1035 0.6350
vt 0.2710 0.6241
vt 0.5090 0.5264
vt 0.5694 0.4794
vt 0.0490 0.9996
vt 0.0004 0.7402
vt 0.0004 0.7056
vt 0.8105 0.7056
vt 0.0004 0.8448
vt 0.0004 0.8101
vt 0.8105 0.8101
vt 0.0004 0.7755
vt 0.8105 0.7755
vt 0.8105 0.6357
vt 0.8105 0.6703
vt 0.0004 0.6703
vt 0.8105 0.7049
vt 0.0004 0.7049
vt 0.0004 0.9147
vt 0.0004 0.8801
vt 0.8105 0.8801
vt 0.0004 0.7748
vt 0.8105 0.7402
vt 0.0004 0.8455
vt 0.8105 0.8455
vt 0.8105 0.9147
vt 0.0004 0.6357
vt 0.8105 0.8448
vt 0.8105 0.7748
vn -0.3827 0.0000 0.9239
vn 0.9239 0.0000 -0.3827
vn 0.9239 0.0000 0.3827
vn -0.9239 0.0000 0.3827
vn -0.9239 0.0000 -0.3827
vn 0.3827 0.0000 0.9239
vn -0.3827 0.0000 -0.9239
vn 0.3827 0.0000 -0.9239
vn 0.0000 -1.0000 -0.0000
vn -0.8783 0.3735 -0.2985
vn 0.8056 0.3957 -0.4410
vn 0.4568 0.3976 -0.7958
vn 0.7803 0.3833 0.4942
vn 0.5091 0.3846 0.7699
vn -0.4568 0.3976 0.7958
vn -0.8783 0.3735 0.2985
vn -0.4568 0.3976 -0.7958
vn 0.1132 -0.9728 0.2020
vn -0.1909 -0.9751 -0.1124
vn -0.0432 -0.9989 -0.0179
vn -0.0636 -0.9868 0.1492
vn 0.2223 -0.9706 0.0921
vn 0.1504 -0.9867 -0.0623
vn 0.0371 -0.9953 -0.0897
vn -0.0263 -0.9798 0.1984
vn 0.2834 0.5797 -0.7640
vn 0.3836 0.5795 0.7190
vn 0.6988 0.6541 0.2895
vn -0.7408 0.5976 0.3068
vn -0.7642 0.5620 -0.3165
vn 0.7024 0.6100 -0.3669
vn -0.3303 0.5650 -0.7561
vn -0.2975 0.6290 0.7182
vn -0.2533 -0.9617 -0.1049
vn 0.2002 -0.9666 -0.1599
vn 0.1384 -0.9887 0.0573
vn 0.0725 -0.9270 -0.3680
vn -0.0683 -0.9215 0.3824
vn -0.2533 -0.9617 0.1049
vn -0.1049 -0.9617 -0.2533
vn 0.1049 -0.9617 0.2533
vn 0.3300 0.5062 0.7968
vn -0.3300 0.5062 -0.7968
vn 0.7968 0.5062 0.3300
vn -0.7780 0.5127 0.3631
vn -0.7788 0.5380 -0.3226
vn -0.2997 0.4815 0.8236
vn 0.2957 0.4783 -0.8269
vn 0.7968 0.5062 -0.3300
vn 0.0633 -0.9862 -0.1527
vn 0.0039 -0.9998 -0.0206
vn -0.0492 -0.9966 -0.0657
vn -0.2006 -0.9446 -0.2598
vn 0.1166 -0.9525 0.2814
vn -0.1527 -0.9862 -0.0632
vn 0.1527 -0.9862 -0.0633
vn -0.0203 -0.9879 0.1535
vn -0.7861 0.5255 -0.3256
vn -0.3328 0.4937 0.8034
vn 0.3256 0.5255 -0.7861
vn 0.7870 0.5238 -0.3260
vn 0.3769 0.4696 0.7984
vn -0.4016 0.4817 -0.7789
vn 0.8034 0.4937 0.3328
vn -0.7827 0.5007 0.3698
vn 0.0907 -0.9715 0.2190
vn -0.2190 -0.9715 -0.0907
vn 0.2190 -0.9715 -0.0907
vn 0.4516 -0.8901 0.0613
vn 0.1126 -0.9936 0.0041
vn -0.0907 -0.9715 0.2190
vn -0.2190 -0.9715 0.0907
vn 0.1321 -0.9847 0.1136
vn 0.7917 0.5154 -0.3279
vn 0.3075 0.5952 0.7424
vn -0.3279 0.5154 -0.7917
vn 0.8154 0.5309 0.2308
vn -0.7917 0.5154 0.3279
vn -0.8328 0.4790 -0.2773
vn -0.3174 0.5588 0.7662
vn 0.3279 0.5154 -0.7917
vn 0.4395 -0.8969 0.0499
vn 0.0445 -0.8844 -0.4645
vn -0.0739 -0.9812 0.1784
vn -0.2228 -0.9705 0.0923
vn -0.0923 -0.9705 -0.2228
vn 0.1110 -0.9725 0.2047
vn -0.2228 -0.9705 -0.0923
vn 0.2228 -0.9705 -0.0923
vn -0.8166 0.4676 0.3383
vn -0.8480 0.4465 -0.2855
vn -0.2786 0.4437 0.8518
vn 0.3371 0.4736 -0.8137
vn 0.8166 0.4676 -0.3383
vn 0.3383 0.4676 0.8166
vn -0.3487 0.4696 -0.8111
vn 0.8166 0.4676 0.3383
vn -0.2579 -0.7388 -0.6226
vn 0.1924 -0.8644 0.4646
vn -0.0636 -0.9976 -0.0264
vn 0.4646 -0.8644 -0.1924
vn 0.6387 -0.7580 0.1321
vn 0.2970 -0.9547 0.0200
vn -0.2970 -0.9547 -0.0200
vn -0.3042 -0.8800 0.3647
vn 0.0819 -0.9768 0.1978
vn -0.0371 -0.9953 -0.0897
vn -0.0752 -0.9710 -0.2268
vn -0.0432 -0.9989 0.0179
vn 0.2233 -0.9747 -0.0073
vn 0.1121 -0.9885 -0.1010
vn -0.0623 -0.9867 0.1504
vn 0.3068 0.5976 -0.7408
vn 0.2975 0.6290 0.7182
vn 0.7020 0.5835 0.4083
vn -0.7754 0.5703 0.2714
vn 0.6988 0.6541 -0.2895
vn -0.3134 0.5740 -0.7565
vn -0.3410 0.6050 0.7195
vn 0.1384 -0.9887 -0.0573
vn 0.2002 -0.9666 0.1599
vn 0.1049 -0.9617 -0.2533
vn -0.1049 -0.9617 0.2533
vn -0.0725 -0.9270 -0.3680
vn 0.0683 -0.9215 0.3824
vn 0.2997 0.4815 0.8236
vn -0.2957 0.4783 -0.8269
vn -0.7788 0.5380 0.3226
vn -0.7780 0.5127 -0.3631
vn -0.3300 0.5062 0.7968
vn 0.3300 0.5062 -0.7968
vn 0.0048 -0.9999 -0.0117
vn -0.1527 -0.9862 0.0632
vn -0.0633 -0.9862 -0.1527
vn 0.1535 -0.9879 -0.0203
vn -0.2598 -0.9446 -0.2006
vn -0.0205 -0.9964 -0.0822
vn 0.2814 -0.9525 0.1166
vn -0.7789 0.4817 -0.4016
vn 0.3280 0.5242 -0.7859
vn 0.8143 0.5004 -0.2941
vn 0.3328 0.4937 0.8034
vn -0.3256 0.5255 -0.7861
vn 0.7984 0.4696 0.3769
vn -0.7861 0.5255 0.3256
vn 0.0333 -0.9770 0.2106
vn 0.4516 -0.8901 -0.0613
vn 0.2190 -0.9715 0.0907
vn 0.0907 -0.9715 -0.2190
vn 0.0017 -1.0000 0.0041
vn 0.2730 0.5669 0.7773
vn 0.7424 0.5952 0.3075
vn -0.8328 0.4790 0.2773
vn -0.7917 0.5154 -0.3279
vn -0.3766 0.5248 0.7634
vn 0.2228 -0.9705 0.0923
vn 0.0923 -0.9705 -0.2228
vn -0.1110 -0.9725 0.2047
vn -0.0445 -0.8844 -0.4645
vn 0.0739 -0.9812 0.1784
vn 0.4395 -0.8969 -0.0499
vn -0.8480 0.4465 0.2855
vn -0.8166 0.4676 -0.3383
vn -0.3383 0.4676 0.8166
vn 0.3487 0.4696 -0.8111
vn 0.2786 0.4437 0.8518
vn -0.3371 0.4736 -0.8137
vn -0.4369 -0.8993 0.0189
vn 0.2970 -0.9547 -0.0200
vn -0.4021 -0.7626 -0.5067
vn 0.6387 -0.7580 -0.1321
vn 0.4646 -0.8644 0.1924
vn 0.1924 -0.8644 -0.4646
vn -0.1924 -0.8644 0.4646
vn -0.0636 -0.9976 0.0264
vn 0.0000 0.0000 1.0000
vn -1.0000 0.0000 0.0000
vn 0.0000 0.0000 -1.0000
vn 1.0000 0.0000 0.0000
usemtl Baumstamm
s off
f 18/1/1 31/2/1 32/3/1
f 23/4/2 26/5/2 27/6/2
f 24/7/3 25/8/3 26/5/3
f 19/9/4 30/10/4 31/2/4
f 20/11/5 29/12/5 30/10/5
f 17/13/6 32/14/6 25/8/6
f 21/15/7 28/16/7 29/12/7
f 22/17/8 27/6/8 28/16/8
f 17/18/1 18/1/1 32/3/1
f 22/17/2 23/4/2 27/6/2
f 23/4/3 24/7/3 26/5/3
f 18/1/4 19/9/4 31/2/4
f 19/9/5 20/11/5 30/10/5
f 24/7/6 17/13/6 25/8/6
f 20/11/7 21/15/7 29/12/7
f 21/15/8 22/17/8 28/16/8
usemtl Gras
f 5/19/9 19/20/9 18/21/9
f 9/22/9 11/23/9 22/24/9
f 1/25/9 17/26/9 24/27/9
f 1/25/9 3/28/9 18/21/9
f 5/19/9 7/29/9 20/30/9
f 13/31/9 23/32/9 22/24/9
f 9/22/9 21/33/9 20/30/9
f 13/31/9 15/34/9 24/27/9
f 3/28/9 5/19/9 18/21/9
f 21/33/9 9/22/9 22/24/9
f 15/34/9 1/25/9 24/27/9
f 17/26/9 1/25/9 18/21/9
f 19/20/9 5/19/9 20/30/9
f 11/23/9 13/31/9 22/24/9
f 7/29/9 9/22/9 20/30/9
f 23/32/9 13/31/9 24/27/9
usemtl Tanne
f 117/35/10 116/36/10 121/37/10
f 114/38/11 113/39/11 121/37/11
f 113/39/12 120/40/12 121/37/12
f 118/41/13 114/38/13 121/37/13
f 119/42/14 118/41/14 121/37/14
f 115/43/15 119/42/15 121/37/15
f 116/44/16 115/43/16 121/37/16
f 120/40/17 117/35/17 121/37/17
f 25/45/18 37/46/18 40/47/18
f 29/48/19 38/49/19 39/50/19
f 29/48/20 30/51/20 34/52/20
f 31/53/21 33/54/21 34/52/21
f 26/55/22 36/56/22 37/46/22
f 26/55/23 27/57/23 35/58/23
f 27/57/24 28/59/24 39/50/24
f 32/60/25 40/47/25 33/54/25
f 33/61/26 40/62/26 48/63/26
f 39/64/27 38/65/27 46/66/27
f 34/67/28 42/68/28 46/66/28
f 35/69/29 43/70/29 44/71/29
f 36/72/30 44/71/30 45/73/30
f 34/67/31 33/61/31 41/74/31
f 40/75/32 37/76/32 45/73/32
f 39/64/33 47/77/33 43/70/33
f 42/78/34 50/79/34 54/80/34
f 43/81/35 51/82/35 52/83/35
f 45/84/36 44/85/36 52/83/36
f 47/86/37 55/87/37 51/82/37
f 48/88/38 56/89/38 49/90/38
f 41/91/39 49/90/39 50/79/39
f 47/86/40 46/92/40 54/80/40
f 48/88/41 45/84/41 53/93/41
f 54/94/42 62/95/42 63/96/42
f 53/97/43 61/98/43 64/99/43
f 50/100/44 58/101/44 62/95/44
f 52/102/45 51/103/45 59/104/45
f 52/102/46 60/105/46 61/98/46
f 51/103/47 55/106/47 63/96/47
f 49/107/48 56/108/48 64/99/48
f 49/109/49 57/110/49 58/101/49
f 59/111/50 63/112/50 71/113/50
f 64/114/51 72/115/51 65/116/51
f 57/117/52 65/116/52 66/118/52
f 62/119/53 70/120/53 71/113/53
f 64/114/54 61/121/54 69/122/54
f 62/119/55 58/123/55 66/118/55
f 60/124/56 59/111/56 67/125/56
f 60/124/57 68/126/57 69/122/57
f 68/127/58 76/128/58 77/129/58
f 71/130/59 79/131/59 75/132/59
f 72/133/60 80/134/60 73/135/60
f 65/136/61 73/137/61 74/138/61
f 71/130/62 70/139/62 78/140/62
f 72/133/63 69/141/63 77/129/63
f 66/142/64 74/138/64 78/140/64
f 68/127/65 67/143/65 75/132/65
f 77/144/66 85/145/66 88/146/66
f 78/147/67 74/148/67 82/149/67
f 76/150/68 75/151/68 83/152/68
f 76/150/69 84/153/69 85/145/69
f 79/154/70 87/155/70 83/152/70
f 80/156/71 88/146/71 81/157/71
f 73/158/72 81/157/72 82/149/72
f 78/147/73 86/159/73 87/155/73
f 81/160/74 89/161/74 90/162/74
f 86/163/75 94/164/75 95/165/75
f 85/166/76 93/167/76 96/168/76
f 86/163/77 82/169/77 90/162/77
f 83/170/78 91/171/78 92/172/78
f 85/173/79 84/174/79 92/172/79
f 87/175/80 95/165/80 91/171/80
f 88/176/81 96/168/81 89/161/81
f 92/177/82 100/178/82 101/179/82
f 95/180/83 103/181/83 99/182/83
f 89/183/84 96/184/84 104/185/84
f 89/183/85 97/186/85 98/187/85
f 95/180/86 94/188/86 102/189/86
f 93/190/87 101/179/87 104/185/87
f 94/188/88 90/191/88 98/187/88
f 92/177/89 91/192/89 99/182/89
f 99/193/90 107/194/90 108/195/90
f 101/196/91 100/197/91 108/195/91
f 99/193/92 103/198/92 111/199/92
f 104/200/93 112/201/93 105/202/93
f 97/203/94 105/202/94 106/204/94
f 102/205/95 110/206/95 111/199/95
f 104/200/96 101/196/96 109/207/96
f 98/208/97 106/209/97 110/206/97
f 111/210/98 110/211/98 118/212/98
f 112/213/99 109/214/99 117/215/99
f 110/211/100 106/216/100 114/217/100
f 108/218/101 107/219/101 115/220/101
f 108/218/102 116/221/102 117/215/102
f 111/210/103 119/222/103 115/220/103
f 112/213/104 120/223/104 113/224/104
f 105/225/105 113/224/105 114/217/105
f 32/60/106 25/45/106 40/47/106
f 28/59/107 29/48/107 39/50/107
f 38/49/108 29/48/108 34/52/108
f 30/51/109 31/53/109 34/52/109
f 25/45/22 26/55/22 37/46/22
f 36/56/110 26/55/110 35/58/110
f 35/58/111 27/57/111 39/50/111
f 31/53/112 32/60/112 33/54/112
f 41/74/113 33/61/113 48/63/113
f 47/77/114 39/64/114 46/66/114
f 38/65/115 34/67/115 46/66/115
f 36/72/116 35/69/116 44/71/116
f 37/76/30 36/72/30 45/73/30
f 42/68/117 34/67/117 41/74/117
f 48/226/118 40/75/118 45/73/118
f 35/69/119 39/64/119 43/70/119
f 46/92/34 42/78/34 54/80/34
f 44/85/120 43/81/120 52/83/120
f 53/93/121 45/84/121 52/83/121
f 43/81/122 47/86/122 51/82/122
f 41/91/123 48/88/123 49/90/123
f 42/78/39 41/91/39 50/79/39
f 55/87/124 47/86/124 54/80/124
f 56/89/125 48/88/125 53/93/125
f 55/106/126 54/94/126 63/96/126
f 56/108/127 53/97/127 64/99/127
f 54/94/44 50/100/44 62/95/44
f 60/105/128 52/102/128 59/104/128
f 53/97/129 52/102/129 61/98/129
f 59/104/130 51/103/130 63/96/130
f 57/227/131 49/107/131 64/99/131
f 50/100/49 49/109/49 58/101/49
f 67/125/50 59/111/50 71/113/50
f 57/117/132 64/114/132 65/116/132
f 58/123/133 57/117/133 66/118/133
f 63/112/134 62/119/134 71/113/134
f 72/115/135 64/114/135 69/122/135
f 70/120/136 62/119/136 66/118/136
f 68/126/137 60/124/137 67/125/137
f 61/121/138 60/124/138 69/122/138
f 69/141/139 68/127/139 77/129/139
f 67/143/59 71/130/59 75/132/59
f 65/228/140 72/133/140 73/135/140
f 66/142/141 65/136/141 74/138/141
f 79/131/142 71/130/142 78/140/142
f 80/134/143 72/133/143 77/129/143
f 70/139/144 66/142/144 78/140/144
f 76/128/145 68/127/145 75/132/145
f 80/156/66 77/144/66 88/146/66
f 86/159/146 78/147/146 82/149/146
f 84/153/147 76/150/147 83/152/147
f 77/144/148 76/150/148 85/145/148
f 75/151/149 79/154/149 83/152/149
f 73/158/71 80/156/71 81/157/71
f 74/148/72 73/158/72 82/149/72
f 79/154/150 78/147/150 87/155/150
f 82/169/74 81/160/74 90/162/74
f 87/175/151 86/163/151 95/165/151
f 88/176/76 85/166/76 96/168/76
f 94/164/152 86/163/152 90/162/152
f 84/174/153 83/170/153 92/172/153
f 93/229/154 85/173/154 92/172/154
f 83/170/155 87/175/155 91/171/155
f 81/160/81 88/176/81 89/161/81
f 93/190/156 92/177/156 101/179/156
f 91/192/157 95/180/157 99/182/157
f 97/186/158 89/183/158 104/185/158
f 90/191/85 89/183/85 98/187/85
f 103/181/159 95/180/159 102/189/159
f 96/184/160 93/190/160 104/185/160
f 102/189/88 94/188/88 98/187/88
f 100/178/161 92/177/161 99/182/161
f 100/197/162 99/193/162 108/195/162
f 109/207/163 101/196/163 108/195/163
f 107/194/164 99/193/164 111/199/164
f 97/203/165 104/200/165 105/202/165
f 98/230/94 97/203/94 106/204/94
f 103/198/166 102/205/166 111/199/166
f 112/201/167 104/200/167 109/207/167
f 102/205/97 98/208/97 110/206/97
f 119/222/168 111/210/168 118/212/168
f 120/223/169 112/213/169 117/215/169
f 118/212/170 110/211/170 114/217/170
f 116/221/171 108/218/171 115/220/171
f 109/214/172 108/218/172 117/215/172
f 107/219/173 111/210/173 115/220/173
f 105/225/174 112/213/174 113/224/174
f 106/216/175 105/225/175 114/217/175
usemtl Erde
f 2/231/176 4/232/176 3/233/176
f 4/234/177 6/235/177 5/236/177
f 6/235/177 8/237/177 7/238/177
f 8/239/178 10/240/178 9/241/178
f 10/240/178 12/242/178 11/243/178
f 12/244/179 14/245/179 13/246/179
f 16/247/176 2/231/176 1/248/176
f 14/245/179 16/249/179 15/250/179
f 11/251/179 12/244/179 13/246/179
f 9/241/178 10/240/178 11/243/178
f 7/252/178 8/239/178 9/241/178
f 5/236/177 6/235/177 7/238/177
f 3/253/177 4/234/177 5/236/177
f 1/248/176 2/231/176 3/233/176
f 15/254/176 16/247/176 1/248/176
f 13/246/179 14/245/179 15/250/179
