# Blender v2.78 (sub 0) OBJ File: 'wind.blend'
# www.blender.org
mtllib wind.mtl
o Cube.001
v -0.336243 -0.336243 5.523745
v -0.336243 0.336243 5.523745
v -0.336243 -0.336243 -5.523745
v -0.336243 0.336243 -5.523745
v 0.336243 -0.336243 5.523745
v 0.336243 0.336243 5.523745
v 0.336243 -0.336243 -5.523745
v 0.336243 0.336243 -5.523745
v -0.285354 -0.285354 -4.258026
v -0.271522 -0.271522 -3.610901
v -0.256193 -0.256193 -3.006217
v -0.244967 -0.244967 -2.491224
v -0.236450 -0.236450 -2.034667
v -0.229988 -0.229988 -1.619231
v -0.225221 -0.225221 -1.233301
v -0.221938 -0.221938 -0.868089
v -0.220013 -0.220013 -0.516335
v -0.219378 -0.219378 -0.171615
v -0.219378 -0.219378 0.171615
v -0.220013 -0.220013 0.516335
v -0.221938 -0.221938 0.868089
v -0.225221 -0.225221 1.233302
v -0.229988 -0.229988 1.619231
v -0.236450 -0.236450 2.034667
v -0.244967 -0.244967 2.491225
v -0.256193 -0.256193 3.006217
v -0.271522 -0.271522 3.610901
v -0.283741 -0.283741 4.257414
v -0.283741 0.283741 4.257415
v -0.271522 0.271522 3.610901
v -0.256193 0.256193 3.006217
v -0.244967 0.244967 2.491224
v -0.236450 0.236450 2.034667
v -0.229988 0.229988 1.619231
v -0.225221 0.225221 1.233301
v -0.221938 0.221938 0.868089
v -0.220013 0.220013 0.516335
v -0.219378 0.219378 0.171615
v -0.219378 0.219378 -0.171615
v -0.220013 0.220013 -0.516335
v -0.221938 0.221938 -0.868089
v -0.225221 0.225221 -1.233302
v -0.229988 0.229988 -1.619231
v -0.236450 0.236450 -2.034667
v -0.244967 0.244967 -2.491225
v -0.256193 0.256193 -3.006217
v -0.271522 0.271522 -3.610901
v -0.285354 0.285354 -4.258026
v 0.283741 -0.283741 4.257415
v 0.271522 -0.271522 3.610901
v 0.256193 -0.256193 3.006217
v 0.244967 -0.244967 2.491224
v 0.236450 -0.236450 2.034667
v 0.229988 -0.229988 1.619231
v 0.225221 -0.225221 1.233301
v 0.221938 -0.221938 0.868089
v 0.220013 -0.220013 0.516335
v 0.219378 -0.219378 0.171615
v 0.219378 -0.219378 -0.171615
v 0.220013 -0.220013 -0.516335
v 0.221938 -0.221938 -0.868089
v 0.225221 -0.225221 -1.233302
v 0.229988 -0.229988 -1.619231
v 0.236450 -0.236450 -2.034667
v 0.244967 -0.244967 -2.491225
v 0.256193 -0.256193 -3.006217
v 0.271522 -0.271522 -3.610901
v 0.285354 -0.285354 -4.258026
v 0.285354 0.285354 -4.258026
v 0.271522 0.271522 -3.610901
v 0.256193 0.256193 -3.006217
v 0.244967 0.244967 -2.491224
v 0.236450 0.236450 -2.034667
v 0.229988 0.229988 -1.619231
v 0.225221 0.225221 -1.233301
v 0.221938 0.221938 -0.868089
v 0.220013 0.220013 -0.516335
v 0.219378 0.219378 -0.171615
v 0.219378 0.219378 0.171615
v 0.220013 0.220013 0.516335
v 0.221938 0.221938 0.868089
v 0.225221 0.225221 1.233302
v 0.229988 0.229988 1.619231
v 0.236450 0.236450 2.034667
v 0.244967 0.244967 2.491225
v 0.256193 0.256193 3.006217
v 0.271522 0.271522 3.610901
v 0.283741 0.283741 4.257414
v -0.303413 -0.303413 4.908827
v 0.303413 0.303413 4.908827
v -0.303413 0.303413 4.908828
v 0.303413 -0.303413 4.908828
v -0.305344 0.305344 -4.849015
v 0.305344 -0.305344 -4.849015
v -0.305344 -0.305344 -4.849016
v 0.305344 0.305344 -4.849016
vn -0.9990 0.0000 0.0457
vn 0.0000 0.0000 -1.0000
vn 0.9986 -0.0000 -0.0533
vn 0.0000 0.0000 1.0000
vn 0.0000 -0.9986 -0.0533
vn -0.0000 0.9986 -0.0533
vn -0.0000 0.9994 0.0338
vn -0.0000 0.9998 0.0214
vn -0.0000 0.9997 0.0253
vn -0.0000 0.9998 0.0218
vn -0.0000 0.9998 0.0187
vn -0.0000 0.9999 0.0156
vn -0.0000 0.9999 0.0123
vn -0.0000 1.0000 0.0090
vn -0.0000 1.0000 0.0055
vn -0.0000 1.0000 0.0018
vn 0.0000 1.0000 0.0000
vn 0.0000 1.0000 -0.0018
vn 0.0000 1.0000 -0.0055
vn 0.0000 1.0000 -0.0090
vn 0.0000 0.9999 -0.0123
vn 0.0000 0.9999 -0.0156
vn 0.0000 0.9998 -0.0187
vn 0.0000 0.9998 -0.0218
vn 0.0000 0.9997 -0.0253
vn 0.0000 0.9998 -0.0189
vn 0.0000 -0.9994 0.0338
vn 0.0000 -0.9998 0.0214
vn 0.0000 -0.9997 0.0253
vn 0.0000 -0.9998 0.0218
vn 0.0000 -0.9998 0.0187
vn 0.0000 -0.9999 0.0156
vn 0.0000 -0.9999 0.0123
vn 0.0000 -1.0000 0.0090
vn 0.0000 -1.0000 0.0055
vn 0.0000 -1.0000 0.0018
vn 0.0000 -1.0000 0.0000
vn -0.0000 -1.0000 -0.0018
vn -0.0000 -1.0000 -0.0055
vn -0.0000 -1.0000 -0.0090
vn -0.0000 -0.9999 -0.0123
vn -0.0000 -0.9999 -0.0156
vn -0.0000 -0.9998 -0.0187
vn -0.0000 -0.9998 -0.0218
vn -0.0000 -0.9997 -0.0253
vn -0.0000 -0.9998 -0.0189
vn 0.9994 -0.0000 0.0338
vn 0.9998 -0.0000 0.0214
vn 0.9997 0.0000 0.0253
vn 0.9998 -0.0000 0.0218
vn 0.9998 -0.0000 0.0187
vn 0.9999 -0.0000 0.0156
vn 0.9999 -0.0000 0.0123
vn 1.0000 -0.0000 0.0090
vn 1.0000 -0.0000 0.0055
vn 1.0000 -0.0000 0.0018
vn 1.0000 -0.0000 0.0000
vn 1.0000 0.0000 -0.0018
vn 1.0000 -0.0000 -0.0055
vn 1.0000 -0.0000 -0.0090
vn 0.9999 0.0000 -0.0123
vn 0.9999 0.0000 -0.0156
vn 0.9998 0.0000 -0.0187
vn 0.9998 0.0000 -0.0218
vn 0.9997 0.0000 -0.0253
vn 0.9998 0.0000 -0.0189
vn -0.9995 -0.0000 -0.0302
vn -0.9998 -0.0000 -0.0189
vn -0.9997 0.0000 -0.0253
vn -0.9998 -0.0000 -0.0218
vn -0.9998 -0.0000 -0.0187
vn -0.9999 -0.0000 -0.0156
vn -0.9999 -0.0000 -0.0123
vn -1.0000 -0.0000 -0.0090
vn -1.0000 -0.0000 -0.0055
vn -1.0000 -0.0000 -0.0018
vn -1.0000 -0.0000 0.0000
vn -1.0000 0.0000 0.0018
vn -1.0000 -0.0000 0.0055
vn -1.0000 -0.0000 0.0090
vn -0.9999 0.0000 0.0123
vn -0.9999 0.0000 0.0156
vn -0.9998 0.0000 0.0187
vn -0.9998 0.0000 0.0218
vn -0.9997 0.0000 0.0253
vn -0.9998 0.0000 0.0214
vn -0.9986 0.0000 -0.0533
vn 0.0000 0.9995 -0.0302
vn -0.0000 -0.9995 -0.0302
vn 0.9995 0.0000 -0.0302
vn 0.9990 0.0000 0.0457
vn 0.0000 -0.9990 0.0457
vn -0.0000 0.9990 0.0457
vn -0.9994 0.0000 0.0338
usemtl None
s off
f 95//1 93//1 4//1 3//1
f 3//2 4//2 8//2 7//2
f 92//3 90//3 6//3 5//3
f 5//4 6//4 2//4 1//4
f 89//5 92//5 5//5 1//5
f 90//6 91//6 2//6 6//6
f 96//7 93//7 48//7 69//7
f 69//8 48//8 47//8 70//8
f 70//9 47//9 46//9 71//9
f 71//10 46//10 45//10 72//10
f 72//11 45//11 44//11 73//11
f 73//12 44//12 43//12 74//12
f 74//13 43//13 42//13 75//13
f 75//14 42//14 41//14 76//14
f 76//15 41//15 40//15 77//15
f 77//16 40//16 39//16 78//16
f 78//17 39//17 38//17 79//17
f 79//18 38//18 37//18 80//18
f 80//19 37//19 36//19 81//19
f 81//20 36//20 35//20 82//20
f 82//21 35//21 34//21 83//21
f 83//22 34//22 33//22 84//22
f 84//23 33//23 32//23 85//23
f 85//24 32//24 31//24 86//24
f 86//25 31//25 30//25 87//25
f 87//26 30//26 29//26 88//26
f 95//27 94//27 68//27 9//27
f 9//28 68//28 67//28 10//28
f 10//29 67//29 66//29 11//29
f 11//30 66//30 65//30 12//30
f 12//31 65//31 64//31 13//31
f 13//32 64//32 63//32 14//32
f 14//33 63//33 62//33 15//33
f 15//34 62//34 61//34 16//34
f 16//35 61//35 60//35 17//35
f 17//36 60//36 59//36 18//36
f 18//37 59//37 58//37 19//37
f 19//38 58//38 57//38 20//38
f 20//39 57//39 56//39 21//39
f 21//40 56//40 55//40 22//40
f 22//41 55//41 54//41 23//41
f 23//42 54//42 53//42 24//42
f 24//43 53//43 52//43 25//43
f 25//44 52//44 51//44 26//44
f 26//45 51//45 50//45 27//45
f 27//46 50//46 49//46 28//46
f 94//47 96//47 69//47 68//47
f 68//48 69//48 70//48 67//48
f 67//49 70//49 71//49 66//49
f 66//50 71//50 72//50 65//50
f 65//51 72//51 73//51 64//51
f 64//52 73//52 74//52 63//52
f 63//53 74//53 75//53 62//53
f 62//54 75//54 76//54 61//54
f 61//55 76//55 77//55 60//55
f 60//56 77//56 78//56 59//56
f 59//57 78//57 79//57 58//57
f 58//58 79//58 80//58 57//58
f 57//59 80//59 81//59 56//59
f 56//60 81//60 82//60 55//60
f 55//61 82//61 83//61 54//61
f 54//62 83//62 84//62 53//62
f 53//63 84//63 85//63 52//63
f 52//64 85//64 86//64 51//64
f 51//65 86//65 87//65 50//65
f 50//66 87//66 88//66 49//66
f 89//67 91//67 29//67 28//67
f 28//68 29//68 30//68 27//68
f 27//69 30//69 31//69 26//69
f 26//70 31//70 32//70 25//70
f 25//71 32//71 33//71 24//71
f 24//72 33//72 34//72 23//72
f 23//73 34//73 35//73 22//73
f 22//74 35//74 36//74 21//74
f 21//75 36//75 37//75 20//75
f 20//76 37//76 38//76 19//76
f 19//77 38//77 39//77 18//77
f 18//78 39//78 40//78 17//78
f 17//79 40//79 41//79 16//79
f 16//80 41//80 42//80 15//80
f 15//81 42//81 43//81 14//81
f 14//82 43//82 44//82 13//82
f 13//83 44//83 45//83 12//83
f 12//84 45//84 46//84 11//84
f 11//85 46//85 47//85 10//85
f 10//86 47//86 48//86 9//86
f 1//87 2//87 91//87 89//87
f 88//88 29//88 91//88 90//88
f 28//89 49//89 92//89 89//89
f 49//90 88//90 90//90 92//90
f 7//91 8//91 96//91 94//91
f 3//92 7//92 94//92 95//92
f 8//93 4//93 93//93 96//93
f 9//94 48//94 93//94 95//94
